<svg width="89" height="22" viewBox="0 0 89 22" fill="none" xmlns="http://www.w3.org/2000/svg">
<path d="M5.52 17V3.68H0.144V0.079999H15.312V3.68H9.936V17H5.52ZM21.2269 17.264C19.7869 17.264 18.5389 17.016 17.4829 16.52C16.4429 16.008 15.6429 15.288 15.0829 14.36C14.5229 13.432 14.2429 12.336 14.2429 11.072C14.2429 9.872 14.5069 8.808 15.0349 7.88C15.5789 6.952 16.3149 6.232 17.2429 5.72C18.1869 5.192 19.2589 4.928 20.4589 4.928C21.6429 4.928 22.6669 5.176 23.5309 5.672C24.4109 6.168 25.0829 6.88 25.5469 7.808C26.0269 8.72 26.2669 9.792 26.2669 11.024V11.96H18.3229C18.4669 12.728 18.7869 13.28 19.2829 13.616C19.7789 13.952 20.4669 14.12 21.3469 14.12C21.9549 14.12 22.5869 14.032 23.2429 13.856C23.9149 13.664 24.5069 13.392 25.0189 13.04L26.0749 15.848C25.4669 16.28 24.7229 16.624 23.8429 16.88C22.9629 17.136 22.0909 17.264 21.2269 17.264ZM20.6509 7.688C20.0109 7.688 19.4829 7.88 19.0669 8.264C18.6669 8.648 18.4109 9.208 18.2989 9.944H22.7629C22.7149 9.192 22.5069 8.632 22.1389 8.264C21.7869 7.88 21.2909 7.688 20.6509 7.688ZM34.1314 17.264C32.8034 17.264 31.6434 17.016 30.6514 16.52C29.6754 16.024 28.9154 15.312 28.3714 14.384C27.8274 13.456 27.5554 12.352 27.5554 11.072C27.5554 9.792 27.8274 8.696 28.3714 7.784C28.9154 6.856 29.6754 6.152 30.6514 5.672C31.6434 5.176 32.8034 4.928 34.1314 4.928C34.9154 4.928 35.6914 5.04 36.4594 5.264C37.2434 5.472 37.8834 5.768 38.3794 6.152L37.2514 9.08C36.8834 8.792 36.4514 8.568 35.9554 8.408C35.4754 8.232 35.0194 8.144 34.5874 8.144C33.7394 8.144 33.0834 8.4 32.6194 8.912C32.1554 9.424 31.9234 10.144 31.9234 11.072C31.9234 12.016 32.1554 12.752 32.6194 13.28C33.0834 13.792 33.7394 14.048 34.5874 14.048C35.0194 14.048 35.4754 13.968 35.9554 13.808C36.4514 13.632 36.8834 13.4 37.2514 13.112L38.3794 16.04C37.8834 16.424 37.2434 16.728 36.4594 16.952C35.6754 17.16 34.8994 17.264 34.1314 17.264ZM39.7324 17V0.079999H44.0044V6.656C44.8524 5.504 46.0844 4.928 47.7004 4.928C49.1084 4.928 50.1484 5.344 50.8204 6.176C51.5084 7.008 51.8524 8.288 51.8524 10.016V17H47.5804V10.184C47.5804 9.464 47.4524 8.952 47.1964 8.648C46.9564 8.344 46.5964 8.192 46.1164 8.192C45.4764 8.192 44.9644 8.4 44.5804 8.816C44.1964 9.216 44.0044 9.76 44.0044 10.448V17H39.7324Z" fill="#3075C6"/>
<path d="M54.0711 17V12.632H58.5111V17H54.0711ZM66.3774 21.584C65.1934 21.584 64.0814 21.472 63.0414 21.248C62.0174 21.024 61.1374 20.656 60.4014 20.144L61.5054 17.264C62.1134 17.632 62.8334 17.92 63.6654 18.128C64.5134 18.336 65.2814 18.44 65.9694 18.44C66.9454 18.44 67.6734 18.232 68.1534 17.816C68.6494 17.416 68.8974 16.784 68.8974 15.92V14.816C68.5614 15.392 68.0574 15.848 67.3854 16.184C66.7134 16.52 65.9934 16.688 65.2254 16.688C64.1694 16.688 63.2494 16.448 62.4654 15.968C61.6814 15.472 61.0654 14.784 60.6174 13.904C60.1854 13.024 59.9694 11.992 59.9694 10.808C59.9694 9.624 60.1854 8.592 60.6174 7.712C61.0654 6.832 61.6814 6.152 62.4654 5.672C63.2494 5.176 64.1694 4.928 65.2254 4.928C66.0254 4.928 66.7534 5.104 67.4094 5.456C68.0814 5.792 68.5694 6.24 68.8734 6.8V5.192H73.0494V15.416C73.0494 17.48 72.4734 19.024 71.3214 20.048C70.1694 21.072 68.5214 21.584 66.3774 21.584ZM66.5454 13.544C67.2494 13.544 67.8094 13.304 68.2254 12.824C68.6414 12.344 68.8494 11.672 68.8494 10.808C68.8494 9.944 68.6414 9.272 68.2254 8.792C67.8094 8.312 67.2494 8.072 66.5454 8.072C65.8574 8.072 65.3054 8.312 64.8894 8.792C64.4734 9.272 64.2654 9.944 64.2654 10.808C64.2654 11.672 64.4734 12.344 64.8894 12.824C65.3054 13.304 65.8574 13.544 66.5454 13.544ZM81.5209 17.264C80.2089 17.264 79.0649 17.016 78.0889 16.52C77.1129 16.024 76.3529 15.312 75.8089 14.384C75.2649 13.456 74.9929 12.36 74.9929 11.096C74.9929 9.816 75.2649 8.72 75.8089 7.808C76.3529 6.88 77.1129 6.168 78.0889 5.672C79.0649 5.176 80.2089 4.928 81.5209 4.928C82.8329 4.928 83.9769 5.176 84.9529 5.672C85.9289 6.168 86.6809 6.88 87.2089 7.808C87.7529 8.72 88.0249 9.816 88.0249 11.096C88.0249 12.36 87.7529 13.456 87.2089 14.384C86.6809 15.312 85.9289 16.024 84.9529 16.52C83.9769 17.016 82.8329 17.264 81.5209 17.264ZM81.5209 14.12C82.1609 14.12 82.6889 13.88 83.1049 13.4C83.5209 12.92 83.7289 12.152 83.7289 11.096C83.7289 10.024 83.5209 9.256 83.1049 8.792C82.6889 8.312 82.1609 8.072 81.5209 8.072C80.8649 8.072 80.3289 8.312 79.9129 8.792C79.4969 9.256 79.2889 10.024 79.2889 11.096C79.2889 12.152 79.4969 12.92 79.9129 13.4C80.3289 13.88 80.8649 14.12 81.5209 14.12Z" fill="#313131"/>
</svg>
